PathFileType	4	(X/Y/Z)	 2.5Hzhigh3min.trc
DataRate	CameraRate	NumFrames	NumMarkers	Units	OrigDataRate	OrigDataStartFrame	OrigNumFrames
200	200	7	35	m	200	1	1000
Frame#	Time	C7			LSH			RSH			MAN			RASI			LASI			HIPR			HIPL			RPSI			LPSI			COX			RTHI1			RTHI2			RTHI3			RTHI4			RSHA1			RSHA2			RSHA3			RSHA4			RHEEL			RMET5			RMET1			RTOE			LTHI1			LTHI2			LTHI3			LTHI4			LSHA1			LSHA2			LSHA3			LSHA4			LHEEL			LMET5			LMET1			LTOE			
		X1	Y1	Z1	X2	Y2	Z2	X3	Y3	Z3	X4	Y4	Z4	X5	Y5	Z5	X6	Y6	Z6	X7	Y7	Z7	X8	Y8	Z8	X9	Y9	Z9	X10	Y10	Z10	X11	Y11	Z11	X12	Y12	Z12	X13	Y13	Z13	X14	Y14	Z14	X15	Y15	Z15	X16	Y16	Z16	X17	Y17	Z17	X18	Y18	Z18	X19	Y19	Z19	X20	Y20	Z20	X21	Y21	Z21	X22	Y22	Z22	X23	Y23	Z23	X24	Y24	Z24	X25	Y25	Z25	X26	Y26	Z26	X27	Y27	Z27	X28	Y28	Z28	X29	Y29	Z29	X30	Y30	Z30	X31	Y31	Z31	X32	Y32	Z32	X33	Y33	Z33	X34	Y34	Z34	X35	Y35	Z35	
1	0.0050	-0.319109	1.462855	-0.531075	-0.258745	1.477397	-0.696700	-0.260063	1.460856	-0.377635	-0.186270	1.431028	-0.534480	-0.125119	1.033566	-0.428755	-0.137235	1.028571	-0.650418	-0.183616	1.085651	-0.398618	-0.189784	1.099256	-0.673186	-0.282571	1.068770	-0.479616	-0.287356	1.070769	-0.580552	-0.288306	1.077374	-0.528109	-0.213401	0.832496	-0.359366	-0.191551	0.777301	-0.356497	-0.130187	0.799314	-0.357599	-0.145594	0.858154	-0.361659	-0.243513	0.430068	-0.350895	-0.257652	0.389188	-0.354473	-0.198227	0.377044	-0.360419	-0.189273	0.416535	-0.360310	-0.318908	0.163318	-0.403372	-0.205727	0.050265	-0.365351	-0.179553	0.053679	-0.435260	-0.158549	0.043205	-0.425003	-0.240969	0.844392	-0.707103	-0.225095	0.785409	-0.712891	-0.162005	0.797128	-0.719218	-0.169087	0.857245	-0.715434	-0.299876	0.412593	-0.694072	-0.310219	0.372573	-0.689987	-0.251972	0.361967	-0.711468	-0.249564	0.406164	-0.712213	-0.356922	0.159916	-0.647249	-0.251456	0.053720	-0.705281	-0.202531	0.062462	-0.652949	-0.186055	0.051809	-0.661104	
2	0.0100	-0.319576	1.464095	-0.531158	-0.259104	1.479082	-0.696708	-0.260578	1.462585	-0.377817	-0.186892	1.433030	-0.534546	-0.125269	1.035057	-0.428992	-0.137188	1.030098	-0.650562	-0.183912	1.087266	-0.398740	-0.190056	1.100693	-0.673332	-0.282427	1.070835	-0.479948	-0.287189	1.072774	-0.580927	-0.288127	1.079482	-0.528437	-0.213760	0.834004	-0.359505	-0.192012	0.778636	-0.356765	-0.130562	0.800657	-0.357896	-0.145965	0.859555	-0.361901	-0.242920	0.431673	-0.350541	-0.257044	0.390841	-0.354141	-0.197726	0.378551	-0.360722	-0.188699	0.417983	-0.360666	-0.319102	0.164202	-0.403385	-0.204558	0.052873	-0.363884	-0.178277	0.055750	-0.433996	-0.157125	0.045302	-0.423731	-0.240761	0.845694	-0.707319	-0.225006	0.786580	-0.712936	-0.161890	0.798206	-0.719415	-0.168786	0.858191	-0.715415	-0.300130	0.414086	-0.694370	-0.310459	0.374149	-0.690449	-0.252197	0.363565	-0.711846	-0.249745	0.407720	-0.712503	-0.356962	0.160908	-0.648291	-0.250504	0.055845	-0.706587	-0.201783	0.064434	-0.654237	-0.185116	0.053763	-0.662082	
3	0.0150	-0.320008	1.465047	-0.531260	-0.259434	1.480417	-0.696781	-0.261031	1.463958	-0.377875	-0.187743	1.434583	-0.534643	-0.125463	1.036355	-0.429166	-0.137191	1.031363	-0.650721	-0.184408	1.088518	-0.398759	-0.190433	1.101801	-0.673468	-0.282334	1.072368	-0.480279	-0.287127	1.074340	-0.581335	-0.287964	1.081203	-0.528771	-0.214023	0.835109	-0.359561	-0.192271	0.779701	-0.356943	-0.130830	0.801757	-0.358344	-0.146276	0.860713	-0.362239	-0.242182	0.432993	-0.350323	-0.256391	0.392225	-0.353892	-0.197194	0.379781	-0.361146	-0.188063	0.419176	-0.361181	-0.319478	0.165008	-0.403468	-0.203578	0.055304	-0.362595	-0.177268	0.057550	-0.432785	-0.156020	0.047108	-0.422409	-0.240395	0.846543	-0.707464	-0.224755	0.787335	-0.712954	-0.161614	0.798899	-0.719541	-0.168373	0.858773	-0.715433	-0.300250	0.415398	-0.694745	-0.310596	0.375559	-0.691002	-0.252266	0.364978	-0.712189	-0.249745	0.409076	-0.712747	-0.357243	0.161727	-0.649348	-0.249675	0.057911	-0.707776	-0.201380	0.066293	-0.655353	-0.184428	0.055544	-0.662814	
4	0.0200	-0.320431	1.465935	-0.531365	-0.259769	1.481664	-0.696879	-0.261481	1.465228	-0.377947	-0.188486	1.436036	-0.534726	-0.125668	1.037580	-0.429315	-0.137201	1.032551	-0.650876	-0.184902	1.089685	-0.398780	-0.190811	1.102820	-0.673603	-0.282288	1.073796	-0.480594	-0.287091	1.075781	-0.581720	-0.287848	1.082781	-0.529088	-0.214247	0.836136	-0.359600	-0.192480	0.780703	-0.357126	-0.131052	0.802805	-0.358821	-0.146553	0.861802	-0.362602	-0.241427	0.434251	-0.350121	-0.255729	0.393541	-0.353653	-0.196659	0.380937	-0.361579	-0.187415	0.420293	-0.361700	-0.319886	0.165782	-0.403543	-0.202665	0.057669	-0.361365	-0.176349	0.059287	-0.431624	-0.155009	0.048844	-0.421139	-0.240013	0.847296	-0.707618	-0.224473	0.787997	-0.712967	-0.161307	0.799514	-0.719633	-0.167944	0.859281	-0.715441	-0.300326	0.416664	-0.695131	-0.310699	0.376919	-0.691563	-0.252297	0.366324	-0.712523	-0.249700	0.410370	-0.712979	-0.357577	0.162513	-0.650392	-0.248893	0.059941	-0.708929	-0.201029	0.068085	-0.656383	-0.183808	0.057262	-0.663485	
5	0.0250	-0.320828	1.466614	-0.531478	-0.260089	1.482630	-0.697038	-0.261891	1.466196	-0.377962	-0.189232	1.437153	-0.534815	-0.125910	1.038625	-0.429405	-0.137248	1.033524	-0.651037	-0.185483	1.090573	-0.398761	-0.191237	1.103573	-0.673738	-0.282330	1.074830	-0.480888	-0.287137	1.076849	-0.582083	-0.287805	1.083992	-0.529378	-0.214369	0.836878	-0.359578	-0.192523	0.781491	-0.357260	-0.131152	0.803663	-0.359382	-0.146753	0.862683	-0.363037	-0.240598	0.435288	-0.349998	-0.255044	0.394634	-0.353475	-0.196108	0.381856	-0.362074	-0.186723	0.421177	-0.362292	-0.320431	0.166481	-0.403651	-0.201934	0.059865	-0.360298	-0.175680	0.060813	-0.430569	-0.154271	0.050353	-0.419939	-0.239549	0.847721	-0.707757	-0.224075	0.788355	-0.712964	-0.160887	0.799854	-0.719647	-0.167451	0.859536	-0.715450	-0.300283	0.417776	-0.695562	-0.310707	0.378127	-0.692161	-0.252206	0.367486	-0.712818	-0.249511	0.411486	-0.713175	-0.358084	0.163178	-0.651425	-0.248240	0.061886	-0.709984	-0.200909	0.069713	-0.657211	-0.183406	0.058801	-0.663966	
6	0.0300	-0.321195	1.467113	-0.531596	-0.260412	1.483344	-0.697261	-0.262254	1.466883	-0.377951	-0.189713	1.438010	-0.534879	-0.126177	1.039495	-0.429440	-0.137314	1.034284	-0.651193	-0.186035	1.091256	-0.398759	-0.191651	1.104080	-0.673860	-0.282496	1.075566	-0.481141	-0.287253	1.077574	-0.582372	-0.287898	1.084810	-0.529623	-0.214373	0.837418	-0.359520	-0.192418	0.782106	-0.357392	-0.131131	0.804367	-0.360066	-0.146856	0.863379	-0.363532	-0.239743	0.436154	-0.349925	-0.254356	0.395560	-0.353345	-0.195554	0.382576	-0.362591	-0.186009	0.421861	-0.362875	-0.321077	0.167089	-0.403752	-0.201393	0.061867	-0.359392	-0.175270	0.062151	-0.429673	-0.153789	0.051665	-0.418908	-0.239057	0.847884	-0.707903	-0.223589	0.788480	-0.712957	-0.160386	0.799985	-0.719565	-0.166933	0.859621	-0.715459	-0.300119	0.418753	-0.696009	-0.310624	0.379178	-0.692766	-0.252010	0.368458	-0.713064	-0.249207	0.412428	-0.713336	-0.358729	0.163763	-0.652421	-0.247730	0.063701	-0.710940	-0.200937	0.071129	-0.657801	-0.183212	0.060133	-0.664285	
7	0.0350	-0.321531	1.467420	-0.531717	-0.260732	1.483775	-0.697556	-0.262596	1.467262	-0.377915	-0.190057	1.438598	-0.534924	-0.126471	1.040144	-0.429417	-0.137410	1.034804	-0.651350	-0.186617	1.091673	-0.398745	-0.192054	1.104319	-0.673985	-0.282761	1.075935	-0.481371	-0.287441	1.077912	-0.582614	-0.288090	1.085228	-0.529832	-0.214244	0.837725	-0.359432	-0.192137	0.782505	-0.357512	-0.130951	0.804900	-0.360814	-0.146847	0.863867	-0.364072	-0.238867	0.436802	-0.349901	-0.253665	0.396263	-0.353264	-0.195005	0.383056	-0.363137	-0.185279	0.422296	-0.363475	-0.321843	0.167595	-0.403840	-0.201073	0.063642	-0.358678	-0.175157	0.063274	-0.428971	-0.153606	0.052754	-0.418088	-0.238525	0.847776	-0.708089	-0.223013	0.788354	-0.712948	-0.159797	0.799904	-0.719391	-0.166386	0.859511	-0.715445	-0.299826	0.419554	-0.696484	-0.310440	0.380041	-0.693374	-0.251701	0.369194	-0.713251	-0.248772	0.413141	-0.713457	-0.359507	0.164263	-0.653370	-0.247414	0.065338	-0.711766	-0.201183	0.072282	-0.658167	-0.183272	0.061202	-0.664418	
